<?xml version="1.0" standalone="no"?>
<!DOCTYPE svg PUBLIC "-//W3C//DTD SVG 20010904//EN"
 "http://www.w3.org/TR/2001/REC-SVG-20010904/DTD/svg10.dtd">
<svg version="1.0" xmlns="http://www.w3.org/2000/svg"
 width="1600.000000pt" height="1600.000000pt" viewBox="0 0 1600.000000 1600.000000"
 preserveAspectRatio="xMidYMid meet">

<g transform="translate(0.000000,1600.000000) scale(0.100000,-0.100000)"
fill="#E5C5BB" stroke="none">
<path d="M7760 14590 l0 -740 240 0 240 0 0 740 0 740 -240 0 -240 0 0 -740z"/>
<path d="M5735 14804 c-110 -51 -204 -95 -210 -97 -7 -3 590 -1318 610 -1345
5 -6 426 193 427 201 1 13 -614 1337 -621 1336 -3 0 -96 -43 -206 -95z"/>
<path d="M10041 14878 c-5 -13 -144 -314 -309 -671 -165 -356 -297 -649 -294
-651 19 -12 425 -196 427 -194 7 11 608 1316 612 1328 3 11 -50 40 -203 110
-113 52 -210 96 -215 98 -5 2 -13 -7 -18 -20z"/>
<path d="M3768 11836 l-336 -393 474 -474 c260 -260 472 -475 470 -476 -2 -2
-66 -13 -142 -24 -818 -120 -1569 -427 -2227 -912 -364 -268 -755 -656 -1029
-1022 -768 -1026 -1104 -2323 -933 -3600 205 -1523 1113 -2864 2460 -3630 916
-522 2001 -732 3065 -594 525 68 1043 224 1517 458 296 146 526 286 785 478
l128 95 128 -95 c1041 -772 2311 -1103 3592 -936 1249 162 2403 814 3195 1804
605 757 953 1608 1062 2595 24 217 24 753 0 970 -114 1035 -507 1947 -1174
2726 -129 152 -423 441 -578 570 -709 587 -1531 955 -2434 1089 -90 14 -165
26 -167 28 -2 1 210 216 470 476 l474 474 -336 393 -337 393 -820 0 -820 1
-339 -396 -339 -396 473 -473 c422 -422 471 -474 449 -479 -13 -3 -64 -10
-114 -16 -142 -19 -426 -77 -590 -121 -611 -166 -1184 -446 -1678 -818 -59
-44 -112 -81 -117 -81 -5 0 -58 37 -117 82 -632 480 -1466 828 -2238 933 -66
9 -131 18 -144 21 -22 5 28 58 449 479 l473 473 -34 41 c-19 22 -171 200 -339
395 l-305 356 -820 -1 -820 0 -337 -393z m1881 -224 l124 -144 -424 -424 -424
-424 -423 423 -424 424 127 147 127 146 596 -2 596 -3 125 -143z m6146 1 l127
-146 -424 -424 -423 -423 -424 424 -424 424 93 109 c51 59 109 125 129 146
l35 37 592 0 592 0 127 -147z m-6365 -1597 c303 -39 582 -99 842 -182 898
-287 1668 -838 2233 -1599 792 -1065 1062 -2444 733 -3740 -79 -313 -170 -559
-318 -860 -74 -151 -213 -401 -245 -443 -4 -4 -136 136 -198 208 -30 36 -86
107 -125 158 l-69 93 88 172 c302 591 444 1216 426 1872 -18 651 -184 1246
-508 1825 -66 118 -234 363 -343 500 -156 196 -592 620 -703 683 -11 7 -85 56
-164 109 -530 356 -1127 570 -1789 640 -147 15 -580 15 -730 0 -486 -51 -941
-182 -1358 -391 -1553 -778 -2399 -2470 -2086 -4171 146 -792 526 -1500 1110
-2070 617 -602 1375 -965 2249 -1077 200 -25 702 -25 900 0 649 84 1206 294
1737 653 l136 92 111 -126 c60 -70 146 -163 190 -207 45 -44 81 -84 81 -90 0
-11 -164 -130 -300 -217 -1118 -719 -2517 -899 -3780 -486 -1308 428 -2343
1432 -2814 2730 -112 311 -190 648 -238 1038 -21 169 -18 788 5 970 68 545
212 1020 452 1495 214 425 458 765 795 1109 753 769 1723 1227 2805 1325 154
14 727 5 875 -13z m6150 0 c816 -104 1533 -391 2165 -866 165 -124 274 -219
444 -385 727 -711 1178 -1627 1307 -2655 25 -198 30 -705 10 -918 -114 -1188
-662 -2234 -1576 -3008 -1259 -1066 -3033 -1337 -4569 -697 -987 411 -1791
1164 -2274 2129 -621 1240 -616 2738 13 3980 83 163 218 394 230 394 20 0 243
-259 361 -419 l26 -35 -92 -180 c-270 -532 -405 -1065 -422 -1661 -22 -795
205 -1586 642 -2240 393 -586 877 -1015 1498 -1326 400 -201 814 -325 1282
-386 198 -25 700 -25 900 0 873 112 1635 477 2249 1077 655 640 1040 1426
1152 2350 25 202 25 637 0 845 -57 491 -186 916 -409 1348 -190 369 -409 669
-707 967 -640 641 -1454 1026 -2370 1122 -150 15 -583 15 -730 0 -546 -58
-1061 -218 -1515 -471 -102 -57 -342 -211 -430 -275 -9 -7 -23 2 -46 30 -118
136 -185 210 -264 292 l-90 94 30 24 c155 125 443 303 696 429 509 253 1033
400 1619 455 149 13 724 4 870 -14z m-6360 -1036 c500 -46 994 -203 1416 -451
120 -70 324 -209 324 -220 0 -4 -24 -46 -54 -92 -253 -393 -474 -901 -596
-1368 -103 -400 -147 -723 -157 -1144 -22 -981 228 -1894 746 -2724 l65 -104
-30 -24 c-16 -13 -72 -53 -124 -87 -849 -567 -1913 -722 -2888 -420 -411 127
-781 324 -1127 600 -141 112 -406 377 -519 519 -383 479 -622 1030 -716 1650
-28 181 -38 582 -21 776 88 970 575 1839 1356 2424 503 377 1095 605 1720 664
132 12 472 13 605 1z m6150 0 c803 -73 1537 -416 2105 -985 557 -556 897
-1269 980 -2051 17 -161 20 -500 5 -659 -146 -1563 -1344 -2828 -2893 -3056
-742 -108 -1529 40 -2172 410 -115 67 -281 174 -329 214 l-30 24 65 104 c147
236 306 546 398 779 251 633 363 1262 348 1945 -10 419 -54 744 -157 1140
-121 471 -342 979 -596 1372 -30 46 -54 87 -54 92 0 11 209 153 324 220 412
242 922 406 1396 450 137 12 476 13 610 1z m-3337 -2007 c351 -783 385 -1720
92 -2529 -45 -124 -117 -294 -125 -294 -7 0 -80 170 -122 283 -274 749 -267
1627 18 2364 57 150 95 233 104 233 4 0 19 -26 33 -57z"/>
</g>
</svg>
